# xmcd
#
# Track frame offsets:
#	182
#	10207
#	22555
#	39445
#	47745
#	59310
#	70280
#	82800
#	91177
#	100545
#
# Disc length: 1539 seconds
#
# Revision: 0
# Processed by: cddbd v1.5PL3 Copyright (c) Steve Scherf et al.
# Submitted via: dBpowerAMP V4.0
#
DISCID=6406010a
DTITLE=Willie Nelson - Volume 1
DYEAR=1900
DGENRE=
TTITLE0=I Didn't Sleep A Wink
TTITLE1=I Can't Find The Time
TTITLE2=I Let My Mind Wander
TTITLE3=You Would'nt Cross The Street To Say Goodbye
TTITLE4=Suffering In Silence
TTITLE5=I Feel Sorry For Him
TTITLE6=Shelter Of My Arms
TTITLE7=Slow Down Old World
TTITLE8=One Step Beyond
TTITLE9=Face Of A Fighter
EXTD=
EXTT0=
EXTT1=
EXTT2=
EXTT3=
EXTT4=
EXTT5=
EXTT6=
EXTT7=
EXTT8=
EXTT9=
PLAYORDER=
